M48
; DRILL file {KiCad (6.0.4-0)} date 2023 May 19, Friday 08:40:47
; FORMAT={-:-/ absolute / inch / decimal}
; #@! TF.CreationDate,2023-05-19T08:40:47+01:00
; #@! TF.GenerationSoftware,Kicad,Pcbnew,(6.0.4-0)
; #@! TF.FileFunction,Plated,1,2,PTH
FMAT,2
INCH
; #@! TA.AperFunction,Plated,PTH,ViaDrill
T1C0.0157
; #@! TA.AperFunction,Plated,PTH,ComponentDrill
T2C0.0315
; #@! TA.AperFunction,Plated,PTH,ComponentDrill
T3C0.0354
; #@! TA.AperFunction,Plated,PTH,ComponentDrill
T4C0.0394
; #@! TA.AperFunction,Plated,PTH,ComponentDrill
T5C0.0472
; #@! TA.AperFunction,Plated,PTH,ComponentDrill
T6C0.0520
; #@! TA.AperFunction,Plated,PTH,ComponentDrill
T7C0.0709
; #@! TA.AperFunction,Plated,PTH,ComponentDrill
T8C0.0728
; #@! TA.AperFunction,Plated,PTH,ComponentDrill
T9C0.0906
; #@! TA.AperFunction,Plated,PTH,ComponentDrill
T10C0.1260
%
G90
G05
T1
X4.6102Y-2.7323
X4.6339Y-4.7047
X4.7008Y-3.8898
X4.7244Y-2.3465
X5.2756Y-4.2047
X5.3386Y-3.2126
X5.5276Y-3.6102
X5.7421Y-4.0197
X5.7677Y-3.7598
T2
X6.0917Y-1.6366
X6.0917Y-1.7366
X6.0917Y-1.8366
X6.0917Y-1.9366
X6.0917Y-2.0366
X6.0917Y-2.1366
X6.0917Y-2.2366
X6.0917Y-2.3366
X6.0917Y-2.4366
X6.0917Y-2.5366
X6.1917Y-1.6366
X6.1917Y-1.7366
X6.1917Y-1.8366
X6.1917Y-1.9366
X6.1917Y-2.0366
X6.1917Y-2.1366
X6.1917Y-2.2366
X6.1917Y-2.3366
X6.1917Y-2.4366
X6.1917Y-2.5366
T3
X6.1024Y-2.6953
X6.1024Y-2.7953
T4
X4.4244Y-2.7583
X4.4244Y-2.8583
X4.4244Y-2.9583
X4.4244Y-3.0583
X4.4244Y-3.1583
X4.4244Y-3.2583
X4.4244Y-3.3583
X4.4244Y-3.4583
X4.4244Y-3.5583
X4.4244Y-3.6583
X4.4244Y-3.7583
X4.4244Y-3.8583
X4.4244Y-3.9583
X4.4244Y-4.0583
X4.4244Y-4.1583
X5.0244Y-2.7583
X5.0244Y-2.8583
X5.0244Y-2.9583
X5.0244Y-3.0583
X5.0244Y-3.1583
X5.0244Y-3.2583
X5.0244Y-3.3583
X5.0244Y-3.4583
X5.0244Y-3.5583
X5.0244Y-3.6583
X5.0244Y-3.7583
X5.0244Y-3.8583
X5.0244Y-3.9583
X5.0244Y-4.0583
X5.0244Y-4.1583
X6.0207Y-3.236
X6.0207Y-3.336
X6.0207Y-3.436
T5
X3.3465Y-5.1181
X4.7244Y-5.1181
T6
X2.963Y-1.2795
X3.1598Y-1.2795
X3.3567Y-1.2795
X3.5535Y-1.2795
T7
X3.189Y-5.315
X3.3465Y-5.315
X3.5039Y-5.315
X4.5669Y-5.315
X4.7244Y-5.315
X4.8819Y-5.315
T8
X5.5587Y-4.5
X5.5587Y-4.685
X5.5587Y-4.8701
X5.7087Y-4.5
X5.7087Y-4.685
X5.7087Y-4.8701
X6.2087Y-4.585
X6.2087Y-4.785
T9
X3.3465Y-5.5118
X4.7244Y-5.5118
T10
X2.5591Y-1.1811
X2.5591Y-5.9055
X3.937Y-1.1811
X6.1024Y-1.1811
X6.1024Y-5.3858
T0
M30
