%TF.GenerationSoftware,KiCad,Pcbnew,(6.0.4-0)*%
%TF.CreationDate,2023-05-19T08:53:28+01:00*%
%TF.ProjectId,fan-controller-pcb,66616e2d-636f-46e7-9472-6f6c6c65722d,rev?*%
%TF.SameCoordinates,Original*%
%TF.FileFunction,Soldermask,Bot*%
%TF.FilePolarity,Negative*%
%FSLAX46Y46*%
G04 Gerber Fmt 4.6, Leading zero omitted, Abs format (unit mm)*
G04 Created by KiCad (PCBNEW (6.0.4-0)) date 2023-05-19 08:53:28*
%MOMM*%
%LPD*%
G01*
G04 APERTURE LIST*
%ADD10C,1.800000*%
%ADD11C,3.600000*%
%ADD12C,5.500000*%
%ADD13C,3.500000*%
%ADD14C,2.200000*%
%ADD15C,2.800000*%
%ADD16C,3.000000*%
%ADD17R,1.600000X1.600000*%
%ADD18O,1.600000X1.600000*%
%ADD19C,1.900000*%
G04 APERTURE END LIST*
D10*
%TO.C,D1*%
X155000000Y-71000000D03*
X155000000Y-68460000D03*
%TD*%
D11*
%TO.C,H5*%
X65000000Y-150000000D03*
D12*
X65000000Y-150000000D03*
%TD*%
D11*
%TO.C,H4*%
X155000000Y-136800000D03*
D12*
X155000000Y-136800000D03*
%TD*%
D13*
%TO.C,J2*%
X120000000Y-140000000D03*
D14*
X120000000Y-130000000D03*
D15*
X124000000Y-135000000D03*
X116000000Y-135000000D03*
X120000000Y-135000000D03*
%TD*%
D11*
%TO.C,H2*%
X100000000Y-30000000D03*
D12*
X100000000Y-30000000D03*
%TD*%
D16*
%TO.C,SW1*%
X145000000Y-114300000D03*
X145000000Y-123700000D03*
X145000000Y-119000000D03*
X141190000Y-114300000D03*
X141190000Y-119000000D03*
X141190000Y-123700000D03*
X157700000Y-116460000D03*
X157700000Y-121540000D03*
%TD*%
D17*
%TO.C,A1*%
X127620000Y-105620000D03*
D18*
X127620000Y-103080000D03*
X127620000Y-100540000D03*
X127620000Y-98000000D03*
X127620000Y-95460000D03*
X127620000Y-92920000D03*
X127620000Y-90380000D03*
X127620000Y-87840000D03*
X127620000Y-85300000D03*
X127620000Y-82760000D03*
X127620000Y-80220000D03*
X127620000Y-77680000D03*
X127620000Y-75140000D03*
X127620000Y-72600000D03*
X127620000Y-70060000D03*
X112380000Y-70060000D03*
X112380000Y-72600000D03*
X112380000Y-75140000D03*
X112380000Y-77680000D03*
X112380000Y-80220000D03*
X112380000Y-82760000D03*
X112380000Y-85300000D03*
X112380000Y-87840000D03*
X112380000Y-90380000D03*
X112380000Y-92920000D03*
X112380000Y-95460000D03*
X112380000Y-98000000D03*
X112380000Y-100540000D03*
X112380000Y-103080000D03*
X112380000Y-105620000D03*
%TD*%
D12*
%TO.C,H1*%
X65000000Y-30000000D03*
D11*
X65000000Y-30000000D03*
%TD*%
D16*
%TO.C,J1*%
X90260000Y-32500000D03*
X85260000Y-32500000D03*
X80260000Y-32500000D03*
X75260000Y-32500000D03*
%TD*%
D12*
%TO.C,H3*%
X155000000Y-30000000D03*
D11*
X155000000Y-30000000D03*
%TD*%
D10*
%TO.C,RV1*%
X152925000Y-87275000D03*
X152925000Y-84735000D03*
X152925000Y-82195000D03*
%TD*%
D13*
%TO.C,J3*%
X85000000Y-140000000D03*
D15*
X81000000Y-135000000D03*
D14*
X85000000Y-130000000D03*
D15*
X89000000Y-135000000D03*
X85000000Y-135000000D03*
%TD*%
D10*
%TO.C,SW2*%
X154730000Y-64430000D03*
X154730000Y-61890000D03*
X154730000Y-59350000D03*
X154730000Y-56810000D03*
X154730000Y-54270000D03*
X154730000Y-51730000D03*
X154730000Y-49190000D03*
X154730000Y-46650000D03*
X154730000Y-44110000D03*
X154730000Y-41570000D03*
X157270000Y-64430000D03*
X157270000Y-61890000D03*
X157270000Y-59350000D03*
X157270000Y-56810000D03*
X157270000Y-54270000D03*
X157270000Y-51730000D03*
X157270000Y-49190000D03*
D19*
X157270000Y-46650000D03*
D10*
X157270000Y-44110000D03*
X157270000Y-41570000D03*
%TD*%
M02*
