%TF.GenerationSoftware,KiCad,Pcbnew,(6.0.4-0)*%
%TF.CreationDate,2023-05-19T08:53:28+01:00*%
%TF.ProjectId,fan-controller-pcb,66616e2d-636f-46e7-9472-6f6c6c65722d,rev?*%
%TF.SameCoordinates,Original*%
%TF.FileFunction,Legend,Bot*%
%TF.FilePolarity,Positive*%
%FSLAX46Y46*%
G04 Gerber Fmt 4.6, Leading zero omitted, Abs format (unit mm)*
G04 Created by KiCad (PCBNEW (6.0.4-0)) date 2023-05-19 08:53:28*
%MOMM*%
%LPD*%
G01*
G04 APERTURE LIST*
%ADD10C,0.150000*%
%ADD11C,0.300000*%
G04 APERTURE END LIST*
D10*
X152994404Y-49642380D02*
X152994404Y-48642380D01*
X152756309Y-48642380D01*
X152613452Y-48690000D01*
X152518214Y-48785238D01*
X152470595Y-48880476D01*
X152422976Y-49070952D01*
X152422976Y-49213809D01*
X152470595Y-49404285D01*
X152518214Y-49499523D01*
X152613452Y-49594761D01*
X152756309Y-49642380D01*
X152994404Y-49642380D01*
X151994404Y-49642380D02*
X151994404Y-48642380D01*
X151661071Y-49356666D01*
X151327738Y-48642380D01*
X151327738Y-49642380D01*
X150946785Y-48642380D02*
X150280119Y-49642380D01*
X150280119Y-48642380D02*
X150946785Y-49642380D01*
X149470595Y-48642380D02*
X149661071Y-48642380D01*
X149756309Y-48690000D01*
X149803928Y-48737619D01*
X149899166Y-48880476D01*
X149946785Y-49070952D01*
X149946785Y-49451904D01*
X149899166Y-49547142D01*
X149851547Y-49594761D01*
X149756309Y-49642380D01*
X149565833Y-49642380D01*
X149470595Y-49594761D01*
X149422976Y-49547142D01*
X149375357Y-49451904D01*
X149375357Y-49213809D01*
X149422976Y-49118571D01*
X149470595Y-49070952D01*
X149565833Y-49023333D01*
X149756309Y-49023333D01*
X149851547Y-49070952D01*
X149899166Y-49118571D01*
X149946785Y-49213809D01*
X152994404Y-64882380D02*
X152994404Y-63882380D01*
X152756309Y-63882380D01*
X152613452Y-63930000D01*
X152518214Y-64025238D01*
X152470595Y-64120476D01*
X152422976Y-64310952D01*
X152422976Y-64453809D01*
X152470595Y-64644285D01*
X152518214Y-64739523D01*
X152613452Y-64834761D01*
X152756309Y-64882380D01*
X152994404Y-64882380D01*
X151994404Y-64882380D02*
X151994404Y-63882380D01*
X151661071Y-64596666D01*
X151327738Y-63882380D01*
X151327738Y-64882380D01*
X150946785Y-63882380D02*
X150280119Y-64882380D01*
X150280119Y-63882380D02*
X150946785Y-64882380D01*
X149708690Y-63882380D02*
X149613452Y-63882380D01*
X149518214Y-63930000D01*
X149470595Y-63977619D01*
X149422976Y-64072857D01*
X149375357Y-64263333D01*
X149375357Y-64501428D01*
X149422976Y-64691904D01*
X149470595Y-64787142D01*
X149518214Y-64834761D01*
X149613452Y-64882380D01*
X149708690Y-64882380D01*
X149803928Y-64834761D01*
X149851547Y-64787142D01*
X149899166Y-64691904D01*
X149946785Y-64501428D01*
X149946785Y-64263333D01*
X149899166Y-64072857D01*
X149851547Y-63977619D01*
X149803928Y-63930000D01*
X149708690Y-63882380D01*
X152994404Y-44562380D02*
X152994404Y-43562380D01*
X152756309Y-43562380D01*
X152613452Y-43610000D01*
X152518214Y-43705238D01*
X152470595Y-43800476D01*
X152422976Y-43990952D01*
X152422976Y-44133809D01*
X152470595Y-44324285D01*
X152518214Y-44419523D01*
X152613452Y-44514761D01*
X152756309Y-44562380D01*
X152994404Y-44562380D01*
X151994404Y-44562380D02*
X151994404Y-43562380D01*
X151661071Y-44276666D01*
X151327738Y-43562380D01*
X151327738Y-44562380D01*
X150946785Y-43562380D02*
X150280119Y-44562380D01*
X150280119Y-43562380D02*
X150946785Y-44562380D01*
X149756309Y-43990952D02*
X149851547Y-43943333D01*
X149899166Y-43895714D01*
X149946785Y-43800476D01*
X149946785Y-43752857D01*
X149899166Y-43657619D01*
X149851547Y-43610000D01*
X149756309Y-43562380D01*
X149565833Y-43562380D01*
X149470595Y-43610000D01*
X149422976Y-43657619D01*
X149375357Y-43752857D01*
X149375357Y-43800476D01*
X149422976Y-43895714D01*
X149470595Y-43943333D01*
X149565833Y-43990952D01*
X149756309Y-43990952D01*
X149851547Y-44038571D01*
X149899166Y-44086190D01*
X149946785Y-44181428D01*
X149946785Y-44371904D01*
X149899166Y-44467142D01*
X149851547Y-44514761D01*
X149756309Y-44562380D01*
X149565833Y-44562380D01*
X149470595Y-44514761D01*
X149422976Y-44467142D01*
X149375357Y-44371904D01*
X149375357Y-44181428D01*
X149422976Y-44086190D01*
X149470595Y-44038571D01*
X149565833Y-43990952D01*
X152994404Y-59872380D02*
X152994404Y-58872380D01*
X152756309Y-58872380D01*
X152613452Y-58920000D01*
X152518214Y-59015238D01*
X152470595Y-59110476D01*
X152422976Y-59300952D01*
X152422976Y-59443809D01*
X152470595Y-59634285D01*
X152518214Y-59729523D01*
X152613452Y-59824761D01*
X152756309Y-59872380D01*
X152994404Y-59872380D01*
X151994404Y-59872380D02*
X151994404Y-58872380D01*
X151661071Y-59586666D01*
X151327738Y-58872380D01*
X151327738Y-59872380D01*
X150946785Y-58872380D02*
X150280119Y-59872380D01*
X150280119Y-58872380D02*
X150946785Y-59872380D01*
X149946785Y-58967619D02*
X149899166Y-58920000D01*
X149803928Y-58872380D01*
X149565833Y-58872380D01*
X149470595Y-58920000D01*
X149422976Y-58967619D01*
X149375357Y-59062857D01*
X149375357Y-59158095D01*
X149422976Y-59300952D01*
X149994404Y-59872380D01*
X149375357Y-59872380D01*
X152994404Y-57262380D02*
X152994404Y-56262380D01*
X152756309Y-56262380D01*
X152613452Y-56310000D01*
X152518214Y-56405238D01*
X152470595Y-56500476D01*
X152422976Y-56690952D01*
X152422976Y-56833809D01*
X152470595Y-57024285D01*
X152518214Y-57119523D01*
X152613452Y-57214761D01*
X152756309Y-57262380D01*
X152994404Y-57262380D01*
X151994404Y-57262380D02*
X151994404Y-56262380D01*
X151661071Y-56976666D01*
X151327738Y-56262380D01*
X151327738Y-57262380D01*
X150946785Y-56262380D02*
X150280119Y-57262380D01*
X150280119Y-56262380D02*
X150946785Y-57262380D01*
X149994404Y-56262380D02*
X149375357Y-56262380D01*
X149708690Y-56643333D01*
X149565833Y-56643333D01*
X149470595Y-56690952D01*
X149422976Y-56738571D01*
X149375357Y-56833809D01*
X149375357Y-57071904D01*
X149422976Y-57167142D01*
X149470595Y-57214761D01*
X149565833Y-57262380D01*
X149851547Y-57262380D01*
X149946785Y-57214761D01*
X149994404Y-57167142D01*
X152840595Y-70500000D02*
X152935833Y-70452380D01*
X153078690Y-70452380D01*
X153221547Y-70500000D01*
X153316785Y-70595238D01*
X153364404Y-70690476D01*
X153412023Y-70880952D01*
X153412023Y-71023809D01*
X153364404Y-71214285D01*
X153316785Y-71309523D01*
X153221547Y-71404761D01*
X153078690Y-71452380D01*
X152983452Y-71452380D01*
X152840595Y-71404761D01*
X152792976Y-71357142D01*
X152792976Y-71023809D01*
X152983452Y-71023809D01*
X152364404Y-71452380D02*
X152364404Y-70452380D01*
X151792976Y-71452380D01*
X151792976Y-70452380D01*
X151316785Y-71452380D02*
X151316785Y-70452380D01*
X151078690Y-70452380D01*
X150935833Y-70500000D01*
X150840595Y-70595238D01*
X150792976Y-70690476D01*
X150745357Y-70880952D01*
X150745357Y-71023809D01*
X150792976Y-71214285D01*
X150840595Y-71309523D01*
X150935833Y-71404761D01*
X151078690Y-71452380D01*
X151316785Y-71452380D01*
D11*
X146647857Y-30678571D02*
X146647857Y-29178571D01*
X146290714Y-29178571D01*
X146076428Y-29250000D01*
X145933571Y-29392857D01*
X145862142Y-29535714D01*
X145790714Y-29821428D01*
X145790714Y-30035714D01*
X145862142Y-30321428D01*
X145933571Y-30464285D01*
X146076428Y-30607142D01*
X146290714Y-30678571D01*
X146647857Y-30678571D01*
X145147857Y-30678571D02*
X145147857Y-29178571D01*
X144647857Y-30250000D01*
X144147857Y-29178571D01*
X144147857Y-30678571D01*
X143576428Y-29178571D02*
X142576428Y-30678571D01*
X142576428Y-29178571D02*
X143576428Y-30678571D01*
X140362142Y-29892857D02*
X140862142Y-29892857D01*
X140862142Y-30678571D02*
X140862142Y-29178571D01*
X140147857Y-29178571D01*
X139647857Y-30250000D02*
X138933571Y-30250000D01*
X139790714Y-30678571D02*
X139290714Y-29178571D01*
X138790714Y-30678571D01*
X138290714Y-30678571D02*
X138290714Y-29178571D01*
X137433571Y-30678571D01*
X137433571Y-29178571D01*
X134719285Y-30535714D02*
X134790714Y-30607142D01*
X135005000Y-30678571D01*
X135147857Y-30678571D01*
X135362142Y-30607142D01*
X135505000Y-30464285D01*
X135576428Y-30321428D01*
X135647857Y-30035714D01*
X135647857Y-29821428D01*
X135576428Y-29535714D01*
X135505000Y-29392857D01*
X135362142Y-29250000D01*
X135147857Y-29178571D01*
X135005000Y-29178571D01*
X134790714Y-29250000D01*
X134719285Y-29321428D01*
X133790714Y-29178571D02*
X133505000Y-29178571D01*
X133362142Y-29250000D01*
X133219285Y-29392857D01*
X133147857Y-29678571D01*
X133147857Y-30178571D01*
X133219285Y-30464285D01*
X133362142Y-30607142D01*
X133505000Y-30678571D01*
X133790714Y-30678571D01*
X133933571Y-30607142D01*
X134076428Y-30464285D01*
X134147857Y-30178571D01*
X134147857Y-29678571D01*
X134076428Y-29392857D01*
X133933571Y-29250000D01*
X133790714Y-29178571D01*
X132505000Y-30678571D02*
X132505000Y-29178571D01*
X131647857Y-30678571D01*
X131647857Y-29178571D01*
X131147857Y-29178571D02*
X130290714Y-29178571D01*
X130719285Y-30678571D02*
X130719285Y-29178571D01*
X128933571Y-30678571D02*
X129433571Y-29964285D01*
X129790714Y-30678571D02*
X129790714Y-29178571D01*
X129219285Y-29178571D01*
X129076428Y-29250000D01*
X129005000Y-29321428D01*
X128933571Y-29464285D01*
X128933571Y-29678571D01*
X129005000Y-29821428D01*
X129076428Y-29892857D01*
X129219285Y-29964285D01*
X129790714Y-29964285D01*
X128005000Y-29178571D02*
X127719285Y-29178571D01*
X127576428Y-29250000D01*
X127433571Y-29392857D01*
X127362142Y-29678571D01*
X127362142Y-30178571D01*
X127433571Y-30464285D01*
X127576428Y-30607142D01*
X127719285Y-30678571D01*
X128005000Y-30678571D01*
X128147857Y-30607142D01*
X128290714Y-30464285D01*
X128362142Y-30178571D01*
X128362142Y-29678571D01*
X128290714Y-29392857D01*
X128147857Y-29250000D01*
X128005000Y-29178571D01*
X126005000Y-30678571D02*
X126719285Y-30678571D01*
X126719285Y-29178571D01*
X124790714Y-30678571D02*
X125505000Y-30678571D01*
X125505000Y-29178571D01*
X124290714Y-29892857D02*
X123790714Y-29892857D01*
X123576428Y-30678571D02*
X124290714Y-30678571D01*
X124290714Y-29178571D01*
X123576428Y-29178571D01*
X122076428Y-30678571D02*
X122576428Y-29964285D01*
X122933571Y-30678571D02*
X122933571Y-29178571D01*
X122362142Y-29178571D01*
X122219285Y-29250000D01*
X122147857Y-29321428D01*
X122076428Y-29464285D01*
X122076428Y-29678571D01*
X122147857Y-29821428D01*
X122219285Y-29892857D01*
X122362142Y-29964285D01*
X122933571Y-29964285D01*
X119433571Y-30678571D02*
X119933571Y-29964285D01*
X120290714Y-30678571D02*
X120290714Y-29178571D01*
X119719285Y-29178571D01*
X119576428Y-29250000D01*
X119505000Y-29321428D01*
X119433571Y-29464285D01*
X119433571Y-29678571D01*
X119505000Y-29821428D01*
X119576428Y-29892857D01*
X119719285Y-29964285D01*
X120290714Y-29964285D01*
X118219285Y-30607142D02*
X118362142Y-30678571D01*
X118647857Y-30678571D01*
X118790714Y-30607142D01*
X118862142Y-30464285D01*
X118862142Y-29892857D01*
X118790714Y-29750000D01*
X118647857Y-29678571D01*
X118362142Y-29678571D01*
X118219285Y-29750000D01*
X118147857Y-29892857D01*
X118147857Y-30035714D01*
X118862142Y-30178571D01*
X117647857Y-29678571D02*
X117290714Y-30678571D01*
X116933571Y-29678571D01*
X116362142Y-30535714D02*
X116290714Y-30607142D01*
X116362142Y-30678571D01*
X116433571Y-30607142D01*
X116362142Y-30535714D01*
X116362142Y-30678571D01*
X116362142Y-29750000D02*
X116290714Y-29821428D01*
X116362142Y-29892857D01*
X116433571Y-29821428D01*
X116362142Y-29750000D01*
X116362142Y-29892857D01*
X114647857Y-29678571D02*
X114290714Y-30678571D01*
X113933571Y-29678571D01*
X113433571Y-29321428D02*
X113362142Y-29250000D01*
X113219285Y-29178571D01*
X112862142Y-29178571D01*
X112719285Y-29250000D01*
X112647857Y-29321428D01*
X112576428Y-29464285D01*
X112576428Y-29607142D01*
X112647857Y-29821428D01*
X113505000Y-30678571D01*
X112576428Y-30678571D01*
D10*
X152661071Y-41498571D02*
X152994404Y-41498571D01*
X152994404Y-42022380D02*
X152994404Y-41022380D01*
X152518214Y-41022380D01*
X152137261Y-41022380D02*
X152137261Y-41831904D01*
X152089642Y-41927142D01*
X152042023Y-41974761D01*
X151946785Y-42022380D01*
X151756309Y-42022380D01*
X151661071Y-41974761D01*
X151613452Y-41927142D01*
X151565833Y-41831904D01*
X151565833Y-41022380D01*
X151089642Y-42022380D02*
X151089642Y-41022380D01*
X150518214Y-42022380D01*
X150518214Y-41022380D01*
X149470595Y-41927142D02*
X149518214Y-41974761D01*
X149661071Y-42022380D01*
X149756309Y-42022380D01*
X149899166Y-41974761D01*
X149994404Y-41879523D01*
X150042023Y-41784285D01*
X150089642Y-41593809D01*
X150089642Y-41450952D01*
X150042023Y-41260476D01*
X149994404Y-41165238D01*
X149899166Y-41070000D01*
X149756309Y-41022380D01*
X149661071Y-41022380D01*
X149518214Y-41070000D01*
X149470595Y-41117619D01*
X152994404Y-54722380D02*
X152994404Y-53722380D01*
X152756309Y-53722380D01*
X152613452Y-53770000D01*
X152518214Y-53865238D01*
X152470595Y-53960476D01*
X152422976Y-54150952D01*
X152422976Y-54293809D01*
X152470595Y-54484285D01*
X152518214Y-54579523D01*
X152613452Y-54674761D01*
X152756309Y-54722380D01*
X152994404Y-54722380D01*
X151994404Y-54722380D02*
X151994404Y-53722380D01*
X151661071Y-54436666D01*
X151327738Y-53722380D01*
X151327738Y-54722380D01*
X150946785Y-53722380D02*
X150280119Y-54722380D01*
X150280119Y-53722380D02*
X150946785Y-54722380D01*
X149470595Y-54055714D02*
X149470595Y-54722380D01*
X149708690Y-53674761D02*
X149946785Y-54389047D01*
X149327738Y-54389047D01*
X152888214Y-68912380D02*
X153364404Y-68912380D01*
X153364404Y-67912380D01*
X152554880Y-68388571D02*
X152221547Y-68388571D01*
X152078690Y-68912380D02*
X152554880Y-68912380D01*
X152554880Y-67912380D01*
X152078690Y-67912380D01*
X151650119Y-68912380D02*
X151650119Y-67912380D01*
X151412023Y-67912380D01*
X151269166Y-67960000D01*
X151173928Y-68055238D01*
X151126309Y-68150476D01*
X151078690Y-68340952D01*
X151078690Y-68483809D01*
X151126309Y-68674285D01*
X151173928Y-68769523D01*
X151269166Y-68864761D01*
X151412023Y-68912380D01*
X151650119Y-68912380D01*
X150650119Y-68531428D02*
X149888214Y-68531428D01*
X150269166Y-68912380D02*
X150269166Y-68150476D01*
X152994404Y-52182380D02*
X152994404Y-51182380D01*
X152756309Y-51182380D01*
X152613452Y-51230000D01*
X152518214Y-51325238D01*
X152470595Y-51420476D01*
X152422976Y-51610952D01*
X152422976Y-51753809D01*
X152470595Y-51944285D01*
X152518214Y-52039523D01*
X152613452Y-52134761D01*
X152756309Y-52182380D01*
X152994404Y-52182380D01*
X151994404Y-52182380D02*
X151994404Y-51182380D01*
X151661071Y-51896666D01*
X151327738Y-51182380D01*
X151327738Y-52182380D01*
X150946785Y-51182380D02*
X150280119Y-52182380D01*
X150280119Y-51182380D02*
X150946785Y-52182380D01*
X149422976Y-51182380D02*
X149899166Y-51182380D01*
X149946785Y-51658571D01*
X149899166Y-51610952D01*
X149803928Y-51563333D01*
X149565833Y-51563333D01*
X149470595Y-51610952D01*
X149422976Y-51658571D01*
X149375357Y-51753809D01*
X149375357Y-51991904D01*
X149422976Y-52087142D01*
X149470595Y-52134761D01*
X149565833Y-52182380D01*
X149803928Y-52182380D01*
X149899166Y-52134761D01*
X149946785Y-52087142D01*
X152994404Y-47092380D02*
X152994404Y-46092380D01*
X152756309Y-46092380D01*
X152613452Y-46140000D01*
X152518214Y-46235238D01*
X152470595Y-46330476D01*
X152422976Y-46520952D01*
X152422976Y-46663809D01*
X152470595Y-46854285D01*
X152518214Y-46949523D01*
X152613452Y-47044761D01*
X152756309Y-47092380D01*
X152994404Y-47092380D01*
X151994404Y-47092380D02*
X151994404Y-46092380D01*
X151661071Y-46806666D01*
X151327738Y-46092380D01*
X151327738Y-47092380D01*
X150946785Y-46092380D02*
X150280119Y-47092380D01*
X150280119Y-46092380D02*
X150946785Y-47092380D01*
X149994404Y-46092380D02*
X149327738Y-46092380D01*
X149756309Y-47092380D01*
X152994404Y-62342380D02*
X152994404Y-61342380D01*
X152756309Y-61342380D01*
X152613452Y-61390000D01*
X152518214Y-61485238D01*
X152470595Y-61580476D01*
X152422976Y-61770952D01*
X152422976Y-61913809D01*
X152470595Y-62104285D01*
X152518214Y-62199523D01*
X152613452Y-62294761D01*
X152756309Y-62342380D01*
X152994404Y-62342380D01*
X151994404Y-62342380D02*
X151994404Y-61342380D01*
X151661071Y-62056666D01*
X151327738Y-61342380D01*
X151327738Y-62342380D01*
X150946785Y-61342380D02*
X150280119Y-62342380D01*
X150280119Y-61342380D02*
X150946785Y-62342380D01*
X149375357Y-62342380D02*
X149946785Y-62342380D01*
X149661071Y-62342380D02*
X149661071Y-61342380D01*
X149756309Y-61485238D01*
X149851547Y-61580476D01*
X149946785Y-61628095D01*
%TO.C,J2*%
X120880952Y-132852380D02*
X120880952Y-131852380D01*
X120642857Y-131852380D01*
X120500000Y-131900000D01*
X120404761Y-131995238D01*
X120357142Y-132090476D01*
X120309523Y-132280952D01*
X120309523Y-132423809D01*
X120357142Y-132614285D01*
X120404761Y-132709523D01*
X120500000Y-132804761D01*
X120642857Y-132852380D01*
X120880952Y-132852380D01*
X119880952Y-132471428D02*
X119119047Y-132471428D01*
X119500000Y-132852380D02*
X119500000Y-132090476D01*
X120761904Y-126900000D02*
X120857142Y-126852380D01*
X121000000Y-126852380D01*
X121142857Y-126900000D01*
X121238095Y-126995238D01*
X121285714Y-127090476D01*
X121333333Y-127280952D01*
X121333333Y-127423809D01*
X121285714Y-127614285D01*
X121238095Y-127709523D01*
X121142857Y-127804761D01*
X121000000Y-127852380D01*
X120904761Y-127852380D01*
X120761904Y-127804761D01*
X120714285Y-127757142D01*
X120714285Y-127423809D01*
X120904761Y-127423809D01*
X120285714Y-127852380D02*
X120285714Y-126852380D01*
X119714285Y-127852380D01*
X119714285Y-126852380D01*
X119238095Y-127852380D02*
X119238095Y-126852380D01*
X119000000Y-126852380D01*
X118857142Y-126900000D01*
X118761904Y-126995238D01*
X118714285Y-127090476D01*
X118666666Y-127280952D01*
X118666666Y-127423809D01*
X118714285Y-127614285D01*
X118761904Y-127709523D01*
X118857142Y-127804761D01*
X119000000Y-127852380D01*
X119238095Y-127852380D01*
X116880952Y-132852380D02*
X116880952Y-131852380D01*
X116642857Y-131852380D01*
X116500000Y-131900000D01*
X116404761Y-131995238D01*
X116357142Y-132090476D01*
X116309523Y-132280952D01*
X116309523Y-132423809D01*
X116357142Y-132614285D01*
X116404761Y-132709523D01*
X116500000Y-132804761D01*
X116642857Y-132852380D01*
X116880952Y-132852380D01*
X115880952Y-132471428D02*
X115119047Y-132471428D01*
X124761904Y-131900000D02*
X124857142Y-131852380D01*
X125000000Y-131852380D01*
X125142857Y-131900000D01*
X125238095Y-131995238D01*
X125285714Y-132090476D01*
X125333333Y-132280952D01*
X125333333Y-132423809D01*
X125285714Y-132614285D01*
X125238095Y-132709523D01*
X125142857Y-132804761D01*
X125000000Y-132852380D01*
X124904761Y-132852380D01*
X124761904Y-132804761D01*
X124714285Y-132757142D01*
X124714285Y-132423809D01*
X124904761Y-132423809D01*
X124285714Y-132852380D02*
X124285714Y-131852380D01*
X123714285Y-132852380D01*
X123714285Y-131852380D01*
X123238095Y-132852380D02*
X123238095Y-131852380D01*
X123000000Y-131852380D01*
X122857142Y-131900000D01*
X122761904Y-131995238D01*
X122714285Y-132090476D01*
X122666666Y-132280952D01*
X122666666Y-132423809D01*
X122714285Y-132614285D01*
X122761904Y-132709523D01*
X122857142Y-132804761D01*
X123000000Y-132852380D01*
X123238095Y-132852380D01*
%TO.C,SW1*%
X154950595Y-121100000D02*
X155045833Y-121052380D01*
X155188690Y-121052380D01*
X155331547Y-121100000D01*
X155426785Y-121195238D01*
X155474404Y-121290476D01*
X155522023Y-121480952D01*
X155522023Y-121623809D01*
X155474404Y-121814285D01*
X155426785Y-121909523D01*
X155331547Y-122004761D01*
X155188690Y-122052380D01*
X155093452Y-122052380D01*
X154950595Y-122004761D01*
X154902976Y-121957142D01*
X154902976Y-121623809D01*
X155093452Y-121623809D01*
X154474404Y-122052380D02*
X154474404Y-121052380D01*
X153902976Y-122052380D01*
X153902976Y-121052380D01*
X153426785Y-122052380D02*
X153426785Y-121052380D01*
X153188690Y-121052380D01*
X153045833Y-121100000D01*
X152950595Y-121195238D01*
X152902976Y-121290476D01*
X152855357Y-121480952D01*
X152855357Y-121623809D01*
X152902976Y-121814285D01*
X152950595Y-121909523D01*
X153045833Y-122004761D01*
X153188690Y-122052380D01*
X153426785Y-122052380D01*
X138964404Y-124152380D02*
X138964404Y-123152380D01*
X138631071Y-123866666D01*
X138297738Y-123152380D01*
X138297738Y-124152380D01*
X137869166Y-123866666D02*
X137392976Y-123866666D01*
X137964404Y-124152380D02*
X137631071Y-123152380D01*
X137297738Y-124152380D01*
X136964404Y-124152380D02*
X136964404Y-123152380D01*
X136392976Y-124152380D01*
X136392976Y-123152380D01*
X135916785Y-123152380D02*
X135916785Y-123961904D01*
X135869166Y-124057142D01*
X135821547Y-124104761D01*
X135726309Y-124152380D01*
X135535833Y-124152380D01*
X135440595Y-124104761D01*
X135392976Y-124057142D01*
X135345357Y-123961904D01*
X135345357Y-123152380D01*
X134916785Y-123866666D02*
X134440595Y-123866666D01*
X135012023Y-124152380D02*
X134678690Y-123152380D01*
X134345357Y-124152380D01*
X133535833Y-124152380D02*
X134012023Y-124152380D01*
X134012023Y-123152380D01*
X138964404Y-114702380D02*
X138964404Y-113702380D01*
X138726309Y-113702380D01*
X138583452Y-113750000D01*
X138488214Y-113845238D01*
X138440595Y-113940476D01*
X138392976Y-114130952D01*
X138392976Y-114273809D01*
X138440595Y-114464285D01*
X138488214Y-114559523D01*
X138583452Y-114654761D01*
X138726309Y-114702380D01*
X138964404Y-114702380D01*
X137964404Y-114702380D02*
X137964404Y-113702380D01*
X137631071Y-114416666D01*
X137297738Y-113702380D01*
X137297738Y-114702380D01*
X136916785Y-113702380D02*
X136250119Y-114702380D01*
X136250119Y-113702380D02*
X136916785Y-114702380D01*
X154950595Y-116000000D02*
X155045833Y-115952380D01*
X155188690Y-115952380D01*
X155331547Y-116000000D01*
X155426785Y-116095238D01*
X155474404Y-116190476D01*
X155522023Y-116380952D01*
X155522023Y-116523809D01*
X155474404Y-116714285D01*
X155426785Y-116809523D01*
X155331547Y-116904761D01*
X155188690Y-116952380D01*
X155093452Y-116952380D01*
X154950595Y-116904761D01*
X154902976Y-116857142D01*
X154902976Y-116523809D01*
X155093452Y-116523809D01*
X154474404Y-116952380D02*
X154474404Y-115952380D01*
X153902976Y-116952380D01*
X153902976Y-115952380D01*
X153426785Y-116952380D02*
X153426785Y-115952380D01*
X153188690Y-115952380D01*
X153045833Y-116000000D01*
X152950595Y-116095238D01*
X152902976Y-116190476D01*
X152855357Y-116380952D01*
X152855357Y-116523809D01*
X152902976Y-116714285D01*
X152950595Y-116809523D01*
X153045833Y-116904761D01*
X153188690Y-116952380D01*
X153426785Y-116952380D01*
X138773928Y-118452380D02*
X138583452Y-118452380D01*
X138488214Y-118500000D01*
X138392976Y-118595238D01*
X138345357Y-118785714D01*
X138345357Y-119119047D01*
X138392976Y-119309523D01*
X138488214Y-119404761D01*
X138583452Y-119452380D01*
X138773928Y-119452380D01*
X138869166Y-119404761D01*
X138964404Y-119309523D01*
X139012023Y-119119047D01*
X139012023Y-118785714D01*
X138964404Y-118595238D01*
X138869166Y-118500000D01*
X138773928Y-118452380D01*
X137916785Y-118452380D02*
X137916785Y-119261904D01*
X137869166Y-119357142D01*
X137821547Y-119404761D01*
X137726309Y-119452380D01*
X137535833Y-119452380D01*
X137440595Y-119404761D01*
X137392976Y-119357142D01*
X137345357Y-119261904D01*
X137345357Y-118452380D01*
X137012023Y-118452380D02*
X136440595Y-118452380D01*
X136726309Y-119452380D02*
X136726309Y-118452380D01*
%TO.C,J1*%
X82307619Y-34752380D02*
X82212380Y-34752380D01*
X82117142Y-34800000D01*
X82069523Y-34847619D01*
X82021904Y-34942857D01*
X81974285Y-35133333D01*
X81974285Y-35371428D01*
X82021904Y-35561904D01*
X82069523Y-35657142D01*
X82117142Y-35704761D01*
X82212380Y-35752380D01*
X82307619Y-35752380D01*
X82402857Y-35704761D01*
X82450476Y-35657142D01*
X82498095Y-35561904D01*
X82545714Y-35371428D01*
X82545714Y-35133333D01*
X82498095Y-34942857D01*
X82450476Y-34847619D01*
X82402857Y-34800000D01*
X82307619Y-34752380D01*
X81545714Y-35371428D02*
X80783809Y-35371428D01*
X79783809Y-35752380D02*
X80355238Y-35752380D01*
X80069523Y-35752380D02*
X80069523Y-34752380D01*
X80164761Y-34895238D01*
X80260000Y-34990476D01*
X80355238Y-35038095D01*
X79164761Y-34752380D02*
X79069523Y-34752380D01*
X78974285Y-34800000D01*
X78926666Y-34847619D01*
X78879047Y-34942857D01*
X78831428Y-35133333D01*
X78831428Y-35371428D01*
X78879047Y-35561904D01*
X78926666Y-35657142D01*
X78974285Y-35704761D01*
X79069523Y-35752380D01*
X79164761Y-35752380D01*
X79260000Y-35704761D01*
X79307619Y-35657142D01*
X79355238Y-35561904D01*
X79402857Y-35371428D01*
X79402857Y-35133333D01*
X79355238Y-34942857D01*
X79307619Y-34847619D01*
X79260000Y-34800000D01*
X79164761Y-34752380D01*
X78545714Y-34752380D02*
X78212380Y-35752380D01*
X77879047Y-34752380D01*
X86021904Y-34800000D02*
X86117142Y-34752380D01*
X86260000Y-34752380D01*
X86402857Y-34800000D01*
X86498095Y-34895238D01*
X86545714Y-34990476D01*
X86593333Y-35180952D01*
X86593333Y-35323809D01*
X86545714Y-35514285D01*
X86498095Y-35609523D01*
X86402857Y-35704761D01*
X86260000Y-35752380D01*
X86164761Y-35752380D01*
X86021904Y-35704761D01*
X85974285Y-35657142D01*
X85974285Y-35323809D01*
X86164761Y-35323809D01*
X85545714Y-35752380D02*
X85545714Y-34752380D01*
X84974285Y-35752380D01*
X84974285Y-34752380D01*
X84498095Y-35752380D02*
X84498095Y-34752380D01*
X84260000Y-34752380D01*
X84117142Y-34800000D01*
X84021904Y-34895238D01*
X83974285Y-34990476D01*
X83926666Y-35180952D01*
X83926666Y-35323809D01*
X83974285Y-35514285D01*
X84021904Y-35609523D01*
X84117142Y-35704761D01*
X84260000Y-35752380D01*
X84498095Y-35752380D01*
X91021904Y-34800000D02*
X91117142Y-34752380D01*
X91260000Y-34752380D01*
X91402857Y-34800000D01*
X91498095Y-34895238D01*
X91545714Y-34990476D01*
X91593333Y-35180952D01*
X91593333Y-35323809D01*
X91545714Y-35514285D01*
X91498095Y-35609523D01*
X91402857Y-35704761D01*
X91260000Y-35752380D01*
X91164761Y-35752380D01*
X91021904Y-35704761D01*
X90974285Y-35657142D01*
X90974285Y-35323809D01*
X91164761Y-35323809D01*
X90545714Y-35752380D02*
X90545714Y-34752380D01*
X89974285Y-35752380D01*
X89974285Y-34752380D01*
X89498095Y-35752380D02*
X89498095Y-34752380D01*
X89260000Y-34752380D01*
X89117142Y-34800000D01*
X89021904Y-34895238D01*
X88974285Y-34990476D01*
X88926666Y-35180952D01*
X88926666Y-35323809D01*
X88974285Y-35514285D01*
X89021904Y-35609523D01*
X89117142Y-35704761D01*
X89260000Y-35752380D01*
X89498095Y-35752380D01*
X76450476Y-34847619D02*
X76402857Y-34800000D01*
X76307619Y-34752380D01*
X76069523Y-34752380D01*
X75974285Y-34800000D01*
X75926666Y-34847619D01*
X75879047Y-34942857D01*
X75879047Y-35038095D01*
X75926666Y-35180952D01*
X76498095Y-35752380D01*
X75879047Y-35752380D01*
X75021904Y-35085714D02*
X75021904Y-35752380D01*
X75260000Y-34704761D02*
X75498095Y-35419047D01*
X74879047Y-35419047D01*
X74640952Y-34752380D02*
X74307619Y-35752380D01*
X73974285Y-34752380D01*
%TO.C,RV1*%
X151056071Y-84803571D02*
X151389404Y-84803571D01*
X151389404Y-85327380D02*
X151389404Y-84327380D01*
X150913214Y-84327380D01*
X150579880Y-85041666D02*
X150103690Y-85041666D01*
X150675119Y-85327380D02*
X150341785Y-84327380D01*
X150008452Y-85327380D01*
X149675119Y-85327380D02*
X149675119Y-84327380D01*
X149103690Y-85327380D01*
X149103690Y-84327380D01*
X147294166Y-85232142D02*
X147341785Y-85279761D01*
X147484642Y-85327380D01*
X147579880Y-85327380D01*
X147722738Y-85279761D01*
X147817976Y-85184523D01*
X147865595Y-85089285D01*
X147913214Y-84898809D01*
X147913214Y-84755952D01*
X147865595Y-84565476D01*
X147817976Y-84470238D01*
X147722738Y-84375000D01*
X147579880Y-84327380D01*
X147484642Y-84327380D01*
X147341785Y-84375000D01*
X147294166Y-84422619D01*
X147008452Y-84327380D02*
X146437023Y-84327380D01*
X146722738Y-85327380D02*
X146722738Y-84327380D01*
X145627500Y-85327380D02*
X146103690Y-85327380D01*
X146103690Y-84327380D01*
X150865595Y-82627380D02*
X151437023Y-82627380D01*
X151151309Y-82627380D02*
X151151309Y-81627380D01*
X151246547Y-81770238D01*
X151341785Y-81865476D01*
X151437023Y-81913095D01*
X150437023Y-82532142D02*
X150389404Y-82579761D01*
X150437023Y-82627380D01*
X150484642Y-82579761D01*
X150437023Y-82532142D01*
X150437023Y-82627380D01*
X149532261Y-81627380D02*
X149722738Y-81627380D01*
X149817976Y-81675000D01*
X149865595Y-81722619D01*
X149960833Y-81865476D01*
X150008452Y-82055952D01*
X150008452Y-82436904D01*
X149960833Y-82532142D01*
X149913214Y-82579761D01*
X149817976Y-82627380D01*
X149627500Y-82627380D01*
X149532261Y-82579761D01*
X149484642Y-82532142D01*
X149437023Y-82436904D01*
X149437023Y-82198809D01*
X149484642Y-82103571D01*
X149532261Y-82055952D01*
X149627500Y-82008333D01*
X149817976Y-82008333D01*
X149913214Y-82055952D01*
X149960833Y-82103571D01*
X150008452Y-82198809D01*
X149151309Y-81627380D02*
X148817976Y-82627380D01*
X148484642Y-81627380D01*
X150865595Y-87727380D02*
X151437023Y-87727380D01*
X151151309Y-87727380D02*
X151151309Y-86727380D01*
X151246547Y-86870238D01*
X151341785Y-86965476D01*
X151437023Y-87013095D01*
X150246547Y-86727380D02*
X150151309Y-86727380D01*
X150056071Y-86775000D01*
X150008452Y-86822619D01*
X149960833Y-86917857D01*
X149913214Y-87108333D01*
X149913214Y-87346428D01*
X149960833Y-87536904D01*
X150008452Y-87632142D01*
X150056071Y-87679761D01*
X150151309Y-87727380D01*
X150246547Y-87727380D01*
X150341785Y-87679761D01*
X150389404Y-87632142D01*
X150437023Y-87536904D01*
X150484642Y-87346428D01*
X150484642Y-87108333D01*
X150437023Y-86917857D01*
X150389404Y-86822619D01*
X150341785Y-86775000D01*
X150246547Y-86727380D01*
X149627500Y-86727380D02*
X149294166Y-87727380D01*
X148960833Y-86727380D01*
%TO.C,J3*%
X85761904Y-126900000D02*
X85857142Y-126852380D01*
X86000000Y-126852380D01*
X86142857Y-126900000D01*
X86238095Y-126995238D01*
X86285714Y-127090476D01*
X86333333Y-127280952D01*
X86333333Y-127423809D01*
X86285714Y-127614285D01*
X86238095Y-127709523D01*
X86142857Y-127804761D01*
X86000000Y-127852380D01*
X85904761Y-127852380D01*
X85761904Y-127804761D01*
X85714285Y-127757142D01*
X85714285Y-127423809D01*
X85904761Y-127423809D01*
X85285714Y-127852380D02*
X85285714Y-126852380D01*
X84714285Y-127852380D01*
X84714285Y-126852380D01*
X84238095Y-127852380D02*
X84238095Y-126852380D01*
X84000000Y-126852380D01*
X83857142Y-126900000D01*
X83761904Y-126995238D01*
X83714285Y-127090476D01*
X83666666Y-127280952D01*
X83666666Y-127423809D01*
X83714285Y-127614285D01*
X83761904Y-127709523D01*
X83857142Y-127804761D01*
X84000000Y-127852380D01*
X84238095Y-127852380D01*
X89880952Y-132852380D02*
X89880952Y-131852380D01*
X89642857Y-131852380D01*
X89500000Y-131900000D01*
X89404761Y-131995238D01*
X89357142Y-132090476D01*
X89309523Y-132280952D01*
X89309523Y-132423809D01*
X89357142Y-132614285D01*
X89404761Y-132709523D01*
X89500000Y-132804761D01*
X89642857Y-132852380D01*
X89880952Y-132852380D01*
X88880952Y-132471428D02*
X88119047Y-132471428D01*
X81761904Y-131900000D02*
X81857142Y-131852380D01*
X82000000Y-131852380D01*
X82142857Y-131900000D01*
X82238095Y-131995238D01*
X82285714Y-132090476D01*
X82333333Y-132280952D01*
X82333333Y-132423809D01*
X82285714Y-132614285D01*
X82238095Y-132709523D01*
X82142857Y-132804761D01*
X82000000Y-132852380D01*
X81904761Y-132852380D01*
X81761904Y-132804761D01*
X81714285Y-132757142D01*
X81714285Y-132423809D01*
X81904761Y-132423809D01*
X81285714Y-132852380D02*
X81285714Y-131852380D01*
X80714285Y-132852380D01*
X80714285Y-131852380D01*
X80238095Y-132852380D02*
X80238095Y-131852380D01*
X80000000Y-131852380D01*
X79857142Y-131900000D01*
X79761904Y-131995238D01*
X79714285Y-132090476D01*
X79666666Y-132280952D01*
X79666666Y-132423809D01*
X79714285Y-132614285D01*
X79761904Y-132709523D01*
X79857142Y-132804761D01*
X80000000Y-132852380D01*
X80238095Y-132852380D01*
X85880952Y-132852380D02*
X85880952Y-131852380D01*
X85642857Y-131852380D01*
X85500000Y-131900000D01*
X85404761Y-131995238D01*
X85357142Y-132090476D01*
X85309523Y-132280952D01*
X85309523Y-132423809D01*
X85357142Y-132614285D01*
X85404761Y-132709523D01*
X85500000Y-132804761D01*
X85642857Y-132852380D01*
X85880952Y-132852380D01*
X84880952Y-132471428D02*
X84119047Y-132471428D01*
X84500000Y-132852380D02*
X84500000Y-132090476D01*
%TD*%
M02*
