<?xml version="1.0" encoding="UTF-8" standalone="no"?>
<!DOCTYPE svg PUBLIC "-//W3C//DTD SVG 1.1//EN" "http://www.w3.org/Graphics/SVG/1.1/DTD/svg11.dtd">
<!-- Created with Vectornator (http://vectornator.io/) -->
<svg height="100%" stroke-miterlimit="10" style="fill-rule:nonzero;clip-rule:evenodd;stroke-linecap:round;stroke-linejoin:round;" version="1.1" viewBox="0 0 595.35 419.58" width="100%" xml:space="preserve" xmlns="http://www.w3.org/2000/svg" xmlns:vectornator="http://vectornator.io" xmlns:xlink="http://www.w3.org/1999/xlink">
<defs/>
<g id="Layer-1" vectornator:layerName="Layer 1">
<g opacity="1">
<path d="M294.075 171.073C286.508 165.311 276.188 163.076 267.244 166.172C266.642 166.429 265.954 166.687 265.352 166.945C264.062 160.065 259.16 154.389 252.711 151.982C253.656 149.746 254 147.166 254.086 144.758C254.173 140.63 253.57 136.502 253.914 132.374C254.516 126.268 257.526 120.507 262.17 116.465C265.954 113.197 270.598 111.133 274.296 107.865C277.994 104.511 280.573 99.0931 278.424 94.6215C276.962 91.6111 273.522 89.8052 270.168 89.4612C266.814 89.1173 263.46 89.977 260.192 90.9233C251.162 93.7609 242.39 97.9747 235.339 104.253C228.287 110.617 223.041 119.217 221.837 128.59C220.633 137.964 223.815 148.111 231.039 154.304C231.555 154.734 232.071 155.164 232.673 155.508C228.459 159.205 225.707 164.623 225.707 170.643C225.707 171.761 225.793 172.88 225.965 173.911C223.557 174.255 221.149 175.201 218.999 176.319C215.387 178.297 212.119 180.963 208.335 182.597C202.746 185.091 196.21 185.435 190.448 183.457C185.718 181.823 181.59 178.813 176.86 177.265C172.131 175.717 166.111 176.233 163.272 180.361C161.38 183.199 161.552 186.983 162.929 190.078C164.304 193.175 166.713 195.669 169.207 197.99C176.172 204.44 184.17 209.858 193.2 212.868C202.23 215.792 212.291 216.05 221.063 212.352C229.835 208.654 236.973 200.829 238.693 191.54C238.779 190.853 238.865 190.165 238.951 189.477C241.015 190.165 243.251 190.595 245.486 190.595C250.302 190.595 254.775 188.875 258.214 186.037C259.676 187.929 261.654 189.563 263.804 190.853C267.33 193.002 271.2 194.464 274.554 196.873C279.542 200.399 283.067 205.902 284.186 211.922C285.131 216.824 284.529 221.898 285.561 226.8C286.593 231.702 290.034 236.69 295.021 237.033C298.375 237.292 301.643 235.228 303.621 232.476C305.599 229.723 306.545 226.37 307.319 223.102C309.383 213.9 310.157 204.183 308.179 194.894C306.459 185.693 301.557 176.835 294.075 171.073Z" fill="#231f20" fill-rule="nonzero" opacity="1" stroke="none"/>
<g opacity="1">
<path d="M245.916 195.755C231.985 195.755 220.719 184.403 220.719 170.557C220.719 156.711 232.071 145.36 245.916 145.36C259.848 145.36 271.114 156.711 271.114 170.557C271.114 184.403 259.762 195.755 245.916 195.755ZM245.916 147.252C233.103 147.252 222.611 157.658 222.611 170.557C222.611 183.457 233.017 193.863 245.916 193.863C258.73 193.863 269.222 183.457 269.222 170.557C269.222 157.658 258.73 147.252 245.916 147.252Z" fill="#231f20" fill-rule="nonzero" opacity="1" stroke="none"/>
<path d="M245.916 205.73C226.481 205.73 210.657 189.907 210.657 170.471C210.657 151.035 226.481 135.212 245.916 135.212C265.352 135.212 281.175 151.035 281.175 170.471C281.175 189.907 265.352 205.73 245.916 205.73ZM245.916 137.19C227.513 137.19 212.636 152.154 212.636 170.471C212.636 188.789 227.599 203.753 245.916 203.753C264.32 203.753 279.198 188.789 279.198 170.471C279.198 152.154 264.234 137.19 245.916 137.19Z" fill="#231f20" fill-rule="nonzero" opacity="1" stroke="none"/>
<path d="M245.916 215.792C220.891 215.792 200.595 195.496 200.595 170.471C200.595 145.446 220.891 125.15 245.916 125.15C270.942 125.15 291.237 145.446 291.237 170.471C291.237 195.496 270.856 215.792 245.916 215.792ZM245.916 127.128C222.009 127.128 202.574 146.564 202.574 170.471C202.574 194.379 222.009 213.814 245.916 213.814C269.824 213.814 289.26 194.379 289.26 170.471C289.26 146.564 269.824 127.128 245.916 127.128Z" fill="#231f20" fill-rule="nonzero" opacity="1" stroke="none"/>
<path d="M245.916 225.854C215.387 225.854 190.534 201.001 190.534 170.471C190.534 139.942 215.387 115.089 245.916 115.089C276.446 115.089 301.299 139.942 301.299 170.471C301.299 201.001 276.446 225.854 245.916 225.854ZM245.916 117.066C216.505 117.066 192.512 141.06 192.512 170.471C192.512 199.882 216.505 223.876 245.916 223.876C275.327 223.876 299.321 199.882 299.321 170.471C299.321 141.06 275.327 117.066 245.916 117.066Z" fill="#231f20" fill-rule="nonzero" opacity="1" stroke="none"/>
<path d="M245.916 235.916C209.884 235.916 180.472 206.59 180.472 170.471C180.472 134.438 209.797 105.027 245.916 105.027C281.95 105.027 311.361 134.352 311.361 170.471C311.275 206.59 281.95 235.916 245.916 235.916ZM245.916 107.005C210.915 107.005 182.45 135.47 182.45 170.471C182.45 205.472 210.915 233.938 245.916 233.938C280.918 233.938 309.383 205.472 309.383 170.471C309.383 135.47 280.832 107.005 245.916 107.005Z" fill="#231f20" fill-rule="nonzero" opacity="1" stroke="none"/>
<path d="M245.916 245.977C204.294 245.977 170.497 212.094 170.497 170.557C170.497 129.02 204.379 95.1371 245.916 95.1371C287.54 95.1371 321.337 129.02 321.337 170.557C321.337 212.094 287.453 245.977 245.916 245.977ZM245.916 97.0291C205.411 97.0291 172.388 129.966 172.388 170.557C172.388 211.148 205.326 244.085 245.916 244.085C286.421 244.085 319.445 211.148 319.445 170.557C319.445 129.966 286.421 97.0291 245.916 97.0291Z" fill="#231f20" fill-rule="nonzero" opacity="1" stroke="none"/>
<path d="M245.916 255.953C198.79 255.953 160.435 217.598 160.435 170.471C160.435 123.344 198.79 84.9894 245.916 84.9894C293.043 84.9894 331.399 123.344 331.399 170.471C331.399 217.598 293.043 255.953 245.916 255.953ZM245.916 86.9673C199.822 86.9673 162.412 124.463 162.412 170.471C162.412 216.48 199.908 253.975 245.916 253.975C291.926 253.975 329.42 216.48 329.42 170.471C329.42 124.463 291.926 86.9673 245.916 86.9673Z" fill="#231f20" fill-rule="nonzero" opacity="1" stroke="none"/>
<path d="M245.916 270.401C190.792 270.401 145.987 225.596 145.987 170.471C145.987 115.346 190.792 70.5417 245.916 70.5417C301.041 70.5417 345.846 115.346 345.846 170.471C345.846 225.596 300.955 270.401 245.916 270.401ZM245.916 76.9056C194.318 76.9056 152.351 118.872 152.351 170.471C152.351 222.07 194.318 264.037 245.916 264.037C297.515 264.037 339.482 222.07 339.482 170.471C339.482 118.872 297.515 76.9056 245.916 76.9056Z" fill="#231f20" fill-rule="nonzero" opacity="1" stroke="none"/>
</g>
</g>
</g>
</svg>
